<svg xmlns="http://www.w3.org/2000/svg" xmlns:xlink="http://www.w3.org/1999/xlink" width="899.681" height="899.592" viewBox="0 0 899.681 899.592">
  <defs>
    <linearGradient id="linear-gradient" x1="0.5" x2="0.5" y2="1" gradientUnits="objectBoundingBox">
      <stop offset="0" stop-color="#1f6bff"/>
      <stop offset="1" stop-color="#c623ff"/>
      <stop offset="1" stop-color="#545454"/>
    </linearGradient>
  </defs>
  <g id="user-icon" transform="translate(-0.15 899.669)" style="isolation: isolate">
    <path id="Контур_1" data-name="Контур 1" d="M423.5-899.4c-67.9,5.6-121.4,20.1-176.5,48C92.6-773.3-4.2-611.9.3-440,2.1-370.4,18-307.1,48.9-246.3,91.7-162.1,162.6-91.3,247-48.6a449.007,449.007,0,0,0,375.7,14c108-44.9,195.7-131.9,241.6-239.9,43.6-102.5,47.2-219.9,10.1-324.9A452.853,452.853,0,0,0,625.5-864.3c-40.7-17.3-82.4-28-129.5-33.3C483.1-899.1,434.3-900.2,423.5-899.4ZM497-860.1c94.7,12,178.5,52.7,244.5,118.6,65.4,65.5,106.1,148.7,118.2,242,2.6,20.2,2.6,78.8,0,99-14.1,108.3-67.5,204.2-151.3,271.8C662.6-91.7,606-63.5,550.5-50c-39.7,9.7-55.5,11.5-100,11.5-35.7,0-43.3-.5-68-4.6C270.5-61.5,169.5-127,106.6-222a355.149,355.149,0,0,1-25.9-44.6C60.1-307.7,46.9-351.4,40.3-400c-2.6-19.6-2.6-80.4,0-100,8.1-59.7,26-111.4,55.8-161.5,45-75.4,114.2-135.3,196-169.6C326-845.3,370.4-856.7,405-860c5.8-.6,12.1-1.2,14-1.4C426-862.2,488.7-861.1,497-860.1Z" fill="url(#linear-gradient)"/>
    <path id="Контур_2" data-name="Контур 2" d="M428.6-730c-35.5,5.6-65.2,20.5-89.6,45-27.3,27.4-41.8,58.1-46.1,97.5-2.1,19.9,1.1,46,8.2,66.1a181.286,181.286,0,0,0,20.2,39.1c7.3,10.3,24.4,27.9,33.9,34.8l6.8,4.9L348.2-436c-16.9,8.3-29.2,15.6-41.9,25.1-11.2,8.5-31.9,28.1-40.3,38.4-34.2,42-52.9,90.9-54.7,143.5-.6,17.7,0,22.3,4,28.1,4.7,7,16.1,8.7,23.9,3.6,6-4,8-9.9,8.9-26.7,1.7-31.2,6.6-50.3,19.9-77.5,21.3-43.7,57.8-80.1,101.5-101,53.5-25.7,108-25.7,161,0,43.5,21.1,80,57.2,101.1,100,11.7,23.8,17.4,43.8,19.4,67.7,2.3,27.3,3.9,33.5,9.5,37.2,7.6,5,18.4,3.9,23.4-2.2,4.5-5.4,5.5-11.2,4.8-29.6-1.7-48.5-18.1-94.4-47.9-134.5-9.2-12.4-34.6-37.7-46.9-46.9A270.257,270.257,0,0,0,550-436.9c-6.3-3-11.6-5.5-11.7-5.6-.2-.1,2.6-2.3,6.1-4.8,24.6-18.1,46-47.7,55.5-76.7a158.615,158.615,0,0,0-9.6-121.2c-7.8-15.3-16.1-26.6-29.3-39.9-22-22-46.2-35.3-77.5-42.5-10.4-2.3-14.5-2.7-30.5-3C442.8-730.7,431.9-730.5,428.6-730Zm45.9,39.4c47.2,10.1,84.8,48.8,93.1,95.6,1.9,10.9,1.9,32.1,0,43-9.2,51.7-52.9,91.9-105.8,97.2-55.7,5.6-107-27.8-125.5-81.7-3.6-10.6-5.3-22.4-5.3-37a157.5,157.5,0,0,1,1.5-21.6c5-28.5,22-56.1,45.7-73.9,14.5-11,37.4-20.5,54.8-23C442-693.2,466-692.5,474.5-690.6Z" fill="url(#linear-gradient)"/>
  </g>
</svg>
